{
	"asset":{
		"generator":"Khronos glTF Blender I/O v4.3.47",
		"version":"2.0"
	},
	"scene":0,
	"scenes":[
		{
			"name":"Scene",
			"nodes":[
				1
			]
		}
	],
	"nodes":[
		{
			"mesh":0,
			"name":"shotgun.006_MainMat.006_0",
			"rotation":[
				0.70710688829422,
				0,
				0,
				0.7071066498756409
			],
			"scale":[
				133.03443908691406,
				133.034423828125,
				133.034423828125
			]
		},
		{
			"children":[
				0
			],
			"name":"Sketchfab_model",
			"rotation":[
				-0.70710688829422,
				0,
				0,
				0.7071066498756409
			]
		}
	],
	"materials":[
		{
			"doubleSided":true,
			"name":"MainMat.006",
			"normalTexture":{
				"index":0
			},
			"occlusionTexture":{
				"index":1
			},
			"pbrMetallicRoughness":{
				"baseColorTexture":{
					"index":2
				},
				"metallicRoughnessTexture":{
					"index":1
				}
			}
		}
	],
	"meshes":[
		{
			"name":"shotgun.006_MainMat.006_0",
			"primitives":[
				{
					"attributes":{
						"POSITION":0,
						"NORMAL":1,
						"TEXCOORD_0":2
					},
					"indices":3,
					"material":0
				}
			]
		}
	],
	"textures":[
		{
			"sampler":0,
			"source":0
		},
		{
			"sampler":0,
			"source":1
		},
		{
			"sampler":0,
			"source":2
		}
	],
	"images":[
		{
			"mimeType":"image/png",
			"name":"MainMat.006_normal",
			"uri":"MainMat_006_normal.png"
		},
		{
			"mimeType":"image/png",
			"name":"MainMat.006_metallicRoughness",
			"uri":"MainMat_006_metallicRoughness.png"
		},
		{
			"mimeType":"image/png",
			"name":"MainMat.006_baseColor",
			"uri":"MainMat_006_baseColor.png"
		}
	],
	"accessors":[
		{
			"bufferView":0,
			"componentType":5126,
			"count":1322,
			"max":[
				0.14732180535793304,
				1.087161898612976,
				5.896291732788086
			],
			"min":[
				-0.1531541496515274,
				-0.3377979099750519,
				-2.2604153156280518
			],
			"type":"VEC3"
		},
		{
			"bufferView":1,
			"componentType":5126,
			"count":1322,
			"type":"VEC3"
		},
		{
			"bufferView":2,
			"componentType":5126,
			"count":1322,
			"type":"VEC2"
		},
		{
			"bufferView":3,
			"componentType":5123,
			"count":4617,
			"type":"SCALAR"
		}
	],
	"bufferViews":[
		{
			"buffer":0,
			"byteLength":15864,
			"byteOffset":0,
			"target":34962
		},
		{
			"buffer":0,
			"byteLength":15864,
			"byteOffset":15864,
			"target":34962
		},
		{
			"buffer":0,
			"byteLength":10576,
			"byteOffset":31728,
			"target":34962
		},
		{
			"buffer":0,
			"byteLength":9234,
			"byteOffset":42304,
			"target":34963
		}
	],
	"samplers":[
		{
			"magFilter":9729,
			"minFilter":9987
		}
	],
	"buffers":[
		{
			"byteLength":51540,
			"uri":"scene.bin"
		}
	]
}
