{
	"asset":{
		"generator":"Khronos glTF Blender I/O v4.3.47",
		"version":"2.0"
	},
	"scene":0,
	"scenes":[
		{
			"name":"Scene",
			"nodes":[
				1
			]
		}
	],
	"nodes":[
		{
			"mesh":0,
			"name":"Mesh"
		},
		{
			"children":[
				0
			],
			"name":"Raspberry Pi 3 Light Version",
			"scale":[
				0.0010000000474974513,
				0.0010000000474974513,
				0.0010000000474974513
			]
		}
	],
	"materials":[
		{
			"doubleSided":true,
			"name":"Material_0",
			"pbrMetallicRoughness":{
				"baseColorFactor":[
					0.09803921729326248,
					0.09803921729326248,
					0.09803921729326248,
					1
				],
				"metallicFactor":0
			}
		},
		{
			"doubleSided":true,
			"name":"Material_1",
			"pbrMetallicRoughness":{
				"baseColorFactor":[
					0.8274509906768799,
					0.6666666865348816,
					0.12941177189350128,
					1
				],
				"metallicFactor":0
			}
		},
		{
			"doubleSided":true,
			"name":"Material_2",
			"pbrMetallicRoughness":{
				"baseColorFactor":[
					0.7960784435272217,
					0.8235294222831726,
					0.9372549057006836,
					1
				],
				"metallicFactor":0
			}
		},
		{
			"doubleSided":true,
			"name":"Material_3",
			"pbrMetallicRoughness":{
				"baseColorFactor":[
					0.501960813999176,
					0.501960813999176,
					0.501960813999176,
					1
				],
				"metallicFactor":0
			}
		},
		{
			"doubleSided":true,
			"name":"Material_4",
			"pbrMetallicRoughness":{
				"baseColorFactor":[
					0.10196078568696976,
					0.10196078568696976,
					0.10196078568696976,
					1
				],
				"metallicFactor":0
			}
		},
		{
			"doubleSided":true,
			"name":"Material_5",
			"pbrMetallicRoughness":{
				"baseColorFactor":[
					0.7764706015586853,
					0.7568627595901489,
					0.7372549176216125,
					1
				],
				"metallicFactor":0
			}
		},
		{
			"doubleSided":true,
			"name":"Material_6",
			"pbrMetallicRoughness":{
				"baseColorFactor":[
					0.7529411911964417,
					0.7529411911964417,
					0.7529411911964417,
					1
				],
				"metallicFactor":0
			}
		},
		{
			"doubleSided":true,
			"name":"Material_7",
			"pbrMetallicRoughness":{
				"metallicFactor":0
			}
		},
		{
			"doubleSided":true,
			"name":"Material_8",
			"pbrMetallicRoughness":{
				"baseColorFactor":[
					0.9098039269447327,
					0.4431372582912445,
					0.0313725508749485,
					1
				],
				"metallicFactor":0
			}
		},
		{
			"doubleSided":true,
			"name":"Material_9",
			"pbrMetallicRoughness":{
				"baseColorFactor":[
					0.2549019753932953,
					0.2549019753932953,
					0.2549019753932953,
					1
				],
				"metallicFactor":0
			}
		},
		{
			"doubleSided":true,
			"name":"Material_10",
			"pbrMetallicRoughness":{
				"baseColorFactor":[
					1,
					1,
					0,
					1
				],
				"metallicFactor":0
			}
		},
		{
			"doubleSided":true,
			"name":"Material_11",
			"pbrMetallicRoughness":{
				"baseColorFactor":[
					0.9411764740943909,
					0.9411764740943909,
					0.9411764740943909,
					1
				],
				"metallicFactor":0
			}
		},
		{
			"doubleSided":true,
			"name":"Material_12",
			"pbrMetallicRoughness":{
				"baseColorFactor":[
					1,
					1,
					0.501960813999176,
					1
				],
				"metallicFactor":0
			}
		},
		{
			"doubleSided":true,
			"name":"Material_13",
			"pbrMetallicRoughness":{
				"baseColorFactor":[
					0,
					0,
					0,
					1
				],
				"metallicFactor":0
			}
		},
		{
			"doubleSided":true,
			"name":"Material_14",
			"pbrMetallicRoughness":{
				"baseColorFactor":[
					0.250980406999588,
					0.250980406999588,
					0.250980406999588,
					1
				],
				"metallicFactor":0
			}
		},
		{
			"doubleSided":true,
			"name":"Material_15",
			"pbrMetallicRoughness":{
				"baseColorFactor":[
					0.8235294222831726,
					0.8235294222831726,
					0,
					1
				],
				"metallicFactor":0
			}
		},
		{
			"doubleSided":true,
			"name":"Material_16",
			"pbrMetallicRoughness":{
				"baseColorFactor":[
					0.9098039269447327,
					0.5803921818733215,
					0.0313725508749485,
					1
				],
				"metallicFactor":0
			}
		},
		{
			"doubleSided":true,
			"name":"Material_17",
			"pbrMetallicRoughness":{
				"baseColorFactor":[
					0.9843137264251709,
					0.9803921580314636,
					0.9607843160629272,
					1
				],
				"metallicFactor":0
			}
		},
		{
			"doubleSided":true,
			"name":"Material_18",
			"pbrMetallicRoughness":{
				"baseColorFactor":[
					0.019607843831181526,
					0.4313725531101227,
					0.06666667014360428,
					1
				],
				"metallicFactor":0
			}
		}
	],
	"meshes":[
		{
			"name":"Mesh_0",
			"primitives":[
				{
					"attributes":{
						"POSITION":0,
						"NORMAL":1
					},
					"indices":2,
					"material":0
				},
				{
					"attributes":{
						"POSITION":3,
						"NORMAL":4
					},
					"indices":5,
					"material":1
				},
				{
					"attributes":{
						"POSITION":6,
						"NORMAL":7
					},
					"indices":8,
					"material":2
				},
				{
					"attributes":{
						"POSITION":9,
						"NORMAL":10
					},
					"indices":11,
					"material":3
				},
				{
					"attributes":{
						"POSITION":12,
						"NORMAL":13
					},
					"indices":14,
					"material":4
				},
				{
					"attributes":{
						"POSITION":15,
						"NORMAL":16
					},
					"indices":17,
					"material":5
				},
				{
					"attributes":{
						"POSITION":18,
						"NORMAL":19
					},
					"indices":20,
					"material":6
				},
				{
					"attributes":{
						"POSITION":21,
						"NORMAL":22
					},
					"indices":23,
					"material":7
				},
				{
					"attributes":{
						"POSITION":24,
						"NORMAL":25
					},
					"indices":26,
					"material":8
				},
				{
					"attributes":{
						"POSITION":27,
						"NORMAL":28
					},
					"indices":29,
					"material":9
				},
				{
					"attributes":{
						"POSITION":30,
						"NORMAL":31
					},
					"indices":32,
					"material":10
				},
				{
					"attributes":{
						"POSITION":33,
						"NORMAL":34
					},
					"indices":35,
					"material":11
				},
				{
					"attributes":{
						"POSITION":36,
						"NORMAL":37
					},
					"indices":38,
					"material":12
				},
				{
					"attributes":{
						"POSITION":39,
						"NORMAL":40
					},
					"indices":41,
					"material":13
				},
				{
					"attributes":{
						"POSITION":42,
						"NORMAL":43
					},
					"indices":44,
					"material":14
				},
				{
					"attributes":{
						"POSITION":45,
						"NORMAL":46
					},
					"indices":47,
					"material":15
				},
				{
					"attributes":{
						"POSITION":48,
						"NORMAL":49
					},
					"indices":50,
					"material":16
				},
				{
					"attributes":{
						"POSITION":51,
						"NORMAL":52
					},
					"indices":53,
					"material":17
				},
				{
					"attributes":{
						"POSITION":54,
						"NORMAL":55
					},
					"indices":56,
					"material":18
				}
			]
		}
	],
	"accessors":[
		{
			"bufferView":0,
			"componentType":5126,
			"count":1268,
			"max":[
				38.93000030517578,
				29.41071891784668,
				14.5
			],
			"min":[
				-41.34196090698242,
				-23.09000015258789,
				1
			],
			"type":"VEC3"
		},
		{
			"bufferView":1,
			"componentType":5126,
			"count":1268,
			"type":"VEC3"
		},
		{
			"bufferView":2,
			"componentType":5123,
			"count":2442,
			"type":"SCALAR"
		},
		{
			"bufferView":3,
			"componentType":5126,
			"count":35393,
			"max":[
				37.9900016784668,
				29.235355377197266,
				15.020000457763672
			],
			"min":[
				-46.91032791137695,
				-25.38599967956543,
				-2.0999999046325684
			],
			"type":"VEC3"
		},
		{
			"bufferView":4,
			"componentType":5126,
			"count":35393,
			"type":"VEC3"
		},
		{
			"bufferView":5,
			"componentType":5123,
			"count":82719,
			"type":"SCALAR"
		},
		{
			"bufferView":6,
			"componentType":5126,
			"count":255,
			"max":[
				8.194157600402832,
				28.502544403076172,
				1
			],
			"min":[
				-40.715843200683594,
				25.312543869018555,
				-2.0999999046325684
			],
			"type":"VEC3"
		},
		{
			"bufferView":7,
			"componentType":5126,
			"count":255,
			"type":"VEC3"
		},
		{
			"bufferView":8,
			"componentType":5123,
			"count":543,
			"type":"SCALAR"
		},
		{
			"bufferView":9,
			"componentType":5126,
			"count":6154,
			"max":[
				36.83126449584961,
				28.502544403076172,
				14.5
			],
			"min":[
				-45.9675178527832,
				-19.13336753845215,
				-2.0999999046325684
			],
			"type":"VEC3"
		},
		{
			"bufferView":10,
			"componentType":5126,
			"count":6154,
			"type":"VEC3"
		},
		{
			"bufferView":11,
			"componentType":5123,
			"count":14934,
			"type":"SCALAR"
		},
		{
			"bufferView":12,
			"componentType":5126,
			"count":17646,
			"max":[
				37.9900016784668,
				28.502544403076172,
				15.989999771118164
			],
			"min":[
				-46.21091842651367,
				-26.899999618530273,
				-2.0999999046325684
			],
			"type":"VEC3"
		},
		{
			"bufferView":13,
			"componentType":5126,
			"count":17646,
			"type":"VEC3"
		},
		{
			"bufferView":14,
			"componentType":5123,
			"count":45210,
			"type":"SCALAR"
		},
		{
			"bufferView":15,
			"componentType":5126,
			"count":27877,
			"max":[
				38.93000030517578,
				29.235355377197266,
				16.389999389648438
			],
			"min":[
				-46.76499938964844,
				-26.899999618530273,
				-2.0999999046325684
			],
			"type":"VEC3"
		},
		{
			"bufferView":16,
			"componentType":5126,
			"count":27877,
			"type":"VEC3"
		},
		{
			"bufferView":17,
			"componentType":5123,
			"count":70914,
			"type":"SCALAR"
		},
		{
			"bufferView":18,
			"componentType":5126,
			"count":16796,
			"max":[
				38.43000030517578,
				28.25,
				16.489999771118164
			],
			"min":[
				-47.160919189453125,
				-26.075000762939453,
				-0.75
			],
			"type":"VEC3"
		},
		{
			"bufferView":19,
			"componentType":5126,
			"count":16796,
			"type":"VEC3"
		},
		{
			"bufferView":20,
			"componentType":5123,
			"count":42330,
			"type":"SCALAR"
		},
		{
			"bufferView":21,
			"componentType":5126,
			"count":13331,
			"max":[
				38.93000030517578,
				22.78348731994629,
				15.989999771118164
			],
			"min":[
				-48.077880859375,
				-26.875,
				-1.6399999856948853
			],
			"type":"VEC3"
		},
		{
			"bufferView":22,
			"componentType":5126,
			"count":13331,
			"type":"VEC3"
		},
		{
			"bufferView":23,
			"componentType":5123,
			"count":34680,
			"type":"SCALAR"
		},
		{
			"bufferView":24,
			"componentType":5126,
			"count":217,
			"max":[
				38.93000030517578,
				6.621593475341797,
				12.664460182189941
			],
			"min":[
				-39.75579833984375,
				-4.050000190734863,
				-0.9700000286102295
			],
			"type":"VEC3"
		},
		{
			"bufferView":25,
			"componentType":5126,
			"count":217,
			"type":"VEC3"
		},
		{
			"bufferView":26,
			"componentType":5123,
			"count":375,
			"type":"SCALAR"
		},
		{
			"bufferView":27,
			"componentType":5126,
			"count":394,
			"max":[
				35.1678466796875,
				23,
				4.929999828338623
			],
			"min":[
				26.595787048339844,
				-22.461063385009766,
				-2
			],
			"type":"VEC3"
		},
		{
			"bufferView":28,
			"componentType":5126,
			"count":394,
			"type":"VEC3"
		},
		{
			"bufferView":29,
			"componentType":5123,
			"count":1080,
			"type":"SCALAR"
		},
		{
			"bufferView":30,
			"componentType":5126,
			"count":480,
			"max":[
				38.93000030517578,
				-8.079280853271484,
				3.034043312072754
			],
			"min":[
				36.93000030517578,
				-22.420719146728516,
				1.4524619579315186
			],
			"type":"VEC3"
		},
		{
			"bufferView":31,
			"componentType":5126,
			"count":480,
			"type":"VEC3"
		},
		{
			"bufferView":32,
			"componentType":5123,
			"count":1032,
			"type":"SCALAR"
		},
		{
			"bufferView":33,
			"componentType":5126,
			"count":4003,
			"max":[
				38.93000030517578,
				-7.309999942779541,
				14.5
			],
			"min":[
				17.530000686645508,
				-23.190000534057617,
				-2
			],
			"type":"VEC3"
		},
		{
			"bufferView":34,
			"componentType":5126,
			"count":4003,
			"type":"VEC3"
		},
		{
			"bufferView":35,
			"componentType":5123,
			"count":11340,
			"type":"SCALAR"
		},
		{
			"bufferView":36,
			"componentType":5126,
			"count":4496,
			"max":[
				36.537742614746094,
				-10.5,
				11.75
			],
			"min":[
				23.93000030517578,
				-19.989999771118164,
				9.06590461730957
			],
			"type":"VEC3"
		},
		{
			"bufferView":37,
			"componentType":5126,
			"count":4496,
			"type":"VEC3"
		},
		{
			"bufferView":38,
			"componentType":5123,
			"count":23280,
			"type":"SCALAR"
		},
		{
			"bufferView":39,
			"componentType":5126,
			"count":214,
			"max":[
				38.630001068115234,
				-9.25,
				11.75
			],
			"min":[
				23.93000030517578,
				-21.25,
				1.75
			],
			"type":"VEC3"
		},
		{
			"bufferView":40,
			"componentType":5126,
			"count":214,
			"type":"VEC3"
		},
		{
			"bufferView":41,
			"componentType":5123,
			"count":654,
			"type":"SCALAR"
		},
		{
			"bufferView":42,
			"componentType":5126,
			"count":4278,
			"max":[
				38.93000030517578,
				8.229999542236328,
				1
			],
			"min":[
				-50.706539154052734,
				-23.190000534057617,
				-1.9199999570846558
			],
			"type":"VEC3"
		},
		{
			"bufferView":43,
			"componentType":5126,
			"count":4278,
			"type":"VEC3"
		},
		{
			"bufferView":44,
			"componentType":5123,
			"count":11997,
			"type":"SCALAR"
		},
		{
			"bufferView":45,
			"componentType":5126,
			"count":112,
			"max":[
				36.23774337768555,
				-10.5,
				11.75
			],
			"min":[
				23.93000030517578,
				-19.989999771118164,
				9.370372772216797
			],
			"type":"VEC3"
		},
		{
			"bufferView":46,
			"componentType":5126,
			"count":112,
			"type":"VEC3"
		},
		{
			"bufferView":47,
			"componentType":5123,
			"count":192,
			"type":"SCALAR"
		},
		{
			"bufferView":48,
			"componentType":5126,
			"count":20,
			"max":[
				35.72999954223633,
				-16.945392608642578,
				14.5
			],
			"min":[
				20.729999542236328,
				-17.095394134521484,
				14.399999618530273
			],
			"type":"VEC3"
		},
		{
			"bufferView":49,
			"componentType":5126,
			"count":20,
			"type":"VEC3"
		},
		{
			"bufferView":50,
			"componentType":5123,
			"count":30,
			"type":"SCALAR"
		},
		{
			"bufferView":51,
			"componentType":5126,
			"count":1536,
			"max":[
				16.148639678955078,
				13.130515098571777,
				1.2999999523162842
			],
			"min":[
				6.619086742401123,
				3.5316152572631836,
				1
			],
			"type":"VEC3"
		},
		{
			"bufferView":52,
			"componentType":5126,
			"count":1536,
			"type":"VEC3"
		},
		{
			"bufferView":53,
			"componentType":5123,
			"count":2304,
			"type":"SCALAR"
		},
		{
			"bufferView":54,
			"componentType":5126,
			"count":39012,
			"max":[
				36.48220443725586,
				30.41071891784668,
				1
			],
			"min":[
				-48.44196319580078,
				-25.58928108215332,
				-0.33000001311302185
			],
			"type":"VEC3"
		},
		{
			"bufferView":55,
			"componentType":5126,
			"count":39012,
			"type":"VEC3"
		},
		{
			"bufferView":56,
			"componentType":5123,
			"count":120468,
			"type":"SCALAR"
		}
	],
	"bufferViews":[
		{
			"buffer":0,
			"byteLength":15216,
			"byteOffset":0,
			"target":34962
		},
		{
			"buffer":0,
			"byteLength":15216,
			"byteOffset":15216,
			"target":34962
		},
		{
			"buffer":0,
			"byteLength":4884,
			"byteOffset":30432,
			"target":34963
		},
		{
			"buffer":0,
			"byteLength":424716,
			"byteOffset":35316,
			"target":34962
		},
		{
			"buffer":0,
			"byteLength":424716,
			"byteOffset":460032,
			"target":34962
		},
		{
			"buffer":0,
			"byteLength":165438,
			"byteOffset":884748,
			"target":34963
		},
		{
			"buffer":0,
			"byteLength":3060,
			"byteOffset":1050188,
			"target":34962
		},
		{
			"buffer":0,
			"byteLength":3060,
			"byteOffset":1053248,
			"target":34962
		},
		{
			"buffer":0,
			"byteLength":1086,
			"byteOffset":1056308,
			"target":34963
		},
		{
			"buffer":0,
			"byteLength":73848,
			"byteOffset":1057396,
			"target":34962
		},
		{
			"buffer":0,
			"byteLength":73848,
			"byteOffset":1131244,
			"target":34962
		},
		{
			"buffer":0,
			"byteLength":29868,
			"byteOffset":1205092,
			"target":34963
		},
		{
			"buffer":0,
			"byteLength":211752,
			"byteOffset":1234960,
			"target":34962
		},
		{
			"buffer":0,
			"byteLength":211752,
			"byteOffset":1446712,
			"target":34962
		},
		{
			"buffer":0,
			"byteLength":90420,
			"byteOffset":1658464,
			"target":34963
		},
		{
			"buffer":0,
			"byteLength":334524,
			"byteOffset":1748884,
			"target":34962
		},
		{
			"buffer":0,
			"byteLength":334524,
			"byteOffset":2083408,
			"target":34962
		},
		{
			"buffer":0,
			"byteLength":141828,
			"byteOffset":2417932,
			"target":34963
		},
		{
			"buffer":0,
			"byteLength":201552,
			"byteOffset":2559760,
			"target":34962
		},
		{
			"buffer":0,
			"byteLength":201552,
			"byteOffset":2761312,
			"target":34962
		},
		{
			"buffer":0,
			"byteLength":84660,
			"byteOffset":2962864,
			"target":34963
		},
		{
			"buffer":0,
			"byteLength":159972,
			"byteOffset":3047524,
			"target":34962
		},
		{
			"buffer":0,
			"byteLength":159972,
			"byteOffset":3207496,
			"target":34962
		},
		{
			"buffer":0,
			"byteLength":69360,
			"byteOffset":3367468,
			"target":34963
		},
		{
			"buffer":0,
			"byteLength":2604,
			"byteOffset":3436828,
			"target":34962
		},
		{
			"buffer":0,
			"byteLength":2604,
			"byteOffset":3439432,
			"target":34962
		},
		{
			"buffer":0,
			"byteLength":750,
			"byteOffset":3442036,
			"target":34963
		},
		{
			"buffer":0,
			"byteLength":4728,
			"byteOffset":3442788,
			"target":34962
		},
		{
			"buffer":0,
			"byteLength":4728,
			"byteOffset":3447516,
			"target":34962
		},
		{
			"buffer":0,
			"byteLength":2160,
			"byteOffset":3452244,
			"target":34963
		},
		{
			"buffer":0,
			"byteLength":5760,
			"byteOffset":3454404,
			"target":34962
		},
		{
			"buffer":0,
			"byteLength":5760,
			"byteOffset":3460164,
			"target":34962
		},
		{
			"buffer":0,
			"byteLength":2064,
			"byteOffset":3465924,
			"target":34963
		},
		{
			"buffer":0,
			"byteLength":48036,
			"byteOffset":3467988,
			"target":34962
		},
		{
			"buffer":0,
			"byteLength":48036,
			"byteOffset":3516024,
			"target":34962
		},
		{
			"buffer":0,
			"byteLength":22680,
			"byteOffset":3564060,
			"target":34963
		},
		{
			"buffer":0,
			"byteLength":53952,
			"byteOffset":3586740,
			"target":34962
		},
		{
			"buffer":0,
			"byteLength":53952,
			"byteOffset":3640692,
			"target":34962
		},
		{
			"buffer":0,
			"byteLength":46560,
			"byteOffset":3694644,
			"target":34963
		},
		{
			"buffer":0,
			"byteLength":2568,
			"byteOffset":3741204,
			"target":34962
		},
		{
			"buffer":0,
			"byteLength":2568,
			"byteOffset":3743772,
			"target":34962
		},
		{
			"buffer":0,
			"byteLength":1308,
			"byteOffset":3746340,
			"target":34963
		},
		{
			"buffer":0,
			"byteLength":51336,
			"byteOffset":3747648,
			"target":34962
		},
		{
			"buffer":0,
			"byteLength":51336,
			"byteOffset":3798984,
			"target":34962
		},
		{
			"buffer":0,
			"byteLength":23994,
			"byteOffset":3850320,
			"target":34963
		},
		{
			"buffer":0,
			"byteLength":1344,
			"byteOffset":3874316,
			"target":34962
		},
		{
			"buffer":0,
			"byteLength":1344,
			"byteOffset":3875660,
			"target":34962
		},
		{
			"buffer":0,
			"byteLength":384,
			"byteOffset":3877004,
			"target":34963
		},
		{
			"buffer":0,
			"byteLength":240,
			"byteOffset":3877388,
			"target":34962
		},
		{
			"buffer":0,
			"byteLength":240,
			"byteOffset":3877628,
			"target":34962
		},
		{
			"buffer":0,
			"byteLength":60,
			"byteOffset":3877868,
			"target":34963
		},
		{
			"buffer":0,
			"byteLength":18432,
			"byteOffset":3877928,
			"target":34962
		},
		{
			"buffer":0,
			"byteLength":18432,
			"byteOffset":3896360,
			"target":34962
		},
		{
			"buffer":0,
			"byteLength":4608,
			"byteOffset":3914792,
			"target":34963
		},
		{
			"buffer":0,
			"byteLength":468144,
			"byteOffset":3919400,
			"target":34962
		},
		{
			"buffer":0,
			"byteLength":468144,
			"byteOffset":4387544,
			"target":34962
		},
		{
			"buffer":0,
			"byteLength":240936,
			"byteOffset":4855688,
			"target":34963
		}
	],
	"buffers":[
		{
			"byteLength":5096624,
			"uri":"Raspberry%20Pi%203%20Light%20Version.bin"
		}
	]
}
